# xmcd CD database file
#
# Track frame offsets:
#	150
#	57247
#	91415
#	131482
#	187190
#	220850
#
# Disc length: 3377 seconds
#
# Revision: 0
# Processed by: cddbd v1.5.1PL2 Copyright (c) Steve Scherf et al.
# Submitted via: CDex 1.51
#
DISCID=550d2f06
DTITLE=Fumio Karashima Trio - Elysian Air
DYEAR=1900
DGENRE=Jazz
TTITLE0=Open The Gate
TTITLE1=Norwegian Woods
TTITLE2=Tony Williams
TTITLE3=Love For Sale
TTITLE4=Darn That Dream
TTITLE5=Autumn Leaves
EXTD=
EXTT0=
EXTT1=
EXTT2=
EXTT3=
EXTT4=
EXTT5=
PLAYORDER=
